<svg height="512" viewBox="0 0 60 60" width="512" xmlns="http://www.w3.org/2000/svg"><g id="Page-1" fill="none" fill-rule="evenodd"><g id="066---Contact" fill-rule="nonzero" transform="translate(-1 -1)"><g id="Icons" transform="translate(2 2)"><path id="Shape" d="m30.3 56.4-5.09 1.5c-.3964668.1179856-.8166562.1317623-1.22.04l-8.09-1.87c-.4312008-.094124-.8266457-.3091905-1.14-.62-1.89-1.85-8.56-9.01-12.33-21.49s-2.17-22.09-1.61-24.65c.09129943-.42796754.29891863-.82244401.6-1.14l5.74-5.94c.28452167-.29868876.64350778-.5161515 1.04-.63l5.09-1.5c1.2527234-.3714132 2.5714308.3324914 2.96 1.58l2.51 8.32.89 2.94c.1793631.5994381.1110785 1.2457494-.1895907 1.7944708-.3006693.5487214-.8086539.9541012-1.4104093 1.1255292l-2.75.81-5.75 1.7c-.39129932.1092656-.69560349.4173736-.8.81-1.00824924 4.2191463-.8317623 8.6347804.51 12.76 1.0508815 3.6109626 2.8997593 6.939626 5.41 9.74.3918752.427916.805769.8351341 1.24 1.22.3097054.2702557.7371858.361048 1.13.24l8.5-2.5c1.2531929-.3760826 2.575049.3295027 2.96 1.58l1.75 5.78 1.65 5.48c.1793631.5994381.1110785 1.2457494-.1895907 1.7944708-.3006693.5487214-.8086539.9541012-1.4104093 1.1255292z" fill="#9d27b0"/><path id="Shape" d="m13.25 1.68 2.51 8.32.89 2.94c.1793631.5994381.1110785 1.2457494-.1895907 1.7944708-.3006693.5487214-.8086539.9541012-1.4104093 1.1255292l-2.75.81-5.75 1.7c-.39129932.1092656-.69560349.4173736-.8.81-1.00824924 4.2191463-.8317623 8.6347804.51 12.76 1.05088155 3.6109626 2.89975928 6.939626 5.41 9.74.3918752.427916.805769.8351341 1.24 1.22.3097054.2702557.7371858.361048 1.13.24l1.616-.475c-.279-.257-.6-.57-.986-.985-2.5102407-2.800374-4.3591185-6.1290374-5.41-9.74-1.3417623-4.1252196-1.51824924-8.5408537-.51-12.76.10439651-.3926264.40870068-.7007344.8-.81l5.75-1.7 2.75-.81c.6017554-.171428 1.10974-.5768078 1.4104093-1.1255292.3006692-.5487214.3689538-1.1950327.1895907-1.7944708l-.89-2.94-2.51-8.32c-.3885692-1.2475086-1.7072766-1.9514132-2.96-1.58l-1.019.3c.4671732.29775197.8139613.75116236.979 1.28z" fill="#6a1b9a"/><path id="Shape" d="m31.9 53.48-1.65-5.48-1.75-5.78c-.384951-1.2504973-1.7068071-1.9560826-2.96-1.58l-1.015.3c.4660877.2980004.8115232.7514952.975 1.28l1.75 5.78 1.65 5.48c.1793631.5994381.1110785 1.2457494-.1895907 1.7944708-.3006693.5487214-.8086539.9541012-1.4104093 1.1255292l-4.384 1.292 1.074.248c.4033438.0917623.8235332.0779856 1.22-.04l5.09-1.5c.6017554-.171428 1.10974-.5768078 1.4104093-1.1255292.3006692-.5487214.3689538-1.1950327.1895907-1.7944708z" fill="#6a1b9a"/><path id="Shape" d="m57.05 10.81-19.26 17.87-2.71 2.52c-1.1495122 1.0700719-2.9304878 1.0700719-4.08 0l-2.76-2.55-12.94-11.98 2.75-.81c.6017554-.171428 1.10974-.5768078 1.4104093-1.1255292.3006692-.5487214.3689538-1.1950327.1895907-1.7944708l-.89-2.94h36.24c.76184-.0024437 1.4955864.2874756 2.05.81z" fill="#ffeb3a"/><path id="Shape" d="m55 10h-3c.76184-.0024437 1.4955864.2874756 2.05.81l-19.26 17.87-2.71 2.52c-.1647675.1504579-.3459012.2819475-.54.392 1.1375212.663387 2.5751776.5041888 3.54-.392l2.71-2.52 19.26-17.87c-.5544136-.5225244-1.28816-.8124437-2.05-.81z" fill="#fdd834"/><path id="Shape" d="m58 13v32c.0010566.8252752-.3391491 1.6142629-.94 2.18l-19.27-18.5 19.26-17.87c.6077917.5658753.9520866 1.3595656.95 2.19z" fill="#ffdc00"/><path id="Shape" d="m57.05 10.81-2.077 1.927c.007.088.027.173.027.263v32c0 .063-.015.122-.019.184l2.079 2c.6018662-.5666891.9421626-1.3573352.94-2.184v-32c.0020866-.8304344-.3422083-1.6241247-.95-2.19z" fill="#fec108"/><path id="Shape" d="m28.24 28.65-13.57 13.03c-2.5102407-2.800374-4.3591185-6.1290374-5.41-9.74-1.3417623-4.1252196-1.51824924-8.5408537-.51-12.76.10439651-.3926264.40870068-.7007344.8-.81l5.75-1.7z" fill="#ffdc00"/><path id="Shape" d="m57.06 47.18c-.5572045.5256662-1.2939708.8189421-2.06.82h-24.75l-1.75-5.78c-.384951-1.2504973-1.7068071-1.9560826-2.96-1.58l-8.5 2.5c-.3928142.121048-.8202946.0302557-1.13-.24-.434231-.3848659-.8481248-.792084-1.24-1.22l13.57-13.03 2.76 2.55c1.1495122 1.0700719 2.9304878 1.0700719 4.08 0l2.71-2.52z" fill="#ff9801"/><path id="Shape" d="m37.79 28.68-1.524 1.42 17.794 17.08c-.5572045.5256662-1.2939708.8189421-2.06.82h3c.7660292-.0010579 1.5027955-.2943338 2.06-.82z" fill="#f57c00"/></g><g id="Icons_copy" fill="#000"><path id="Shape" d="m57 11h-35.49l-2.3-7.61c-.546187-1.77478749-2.4198811-2.77855217-4.2-2.25l-5.09 1.5c-.56263794.16222124-1.07292799.46908485-1.48.89l-5.74 5.95c-.43511184.44706768-.7334808 1.0091115-.86 1.62-.59 2.7-2.2 12.48 1.63 25.15s10.6 19.97 12.59 21.91c.4455843.4377739 1.0022865.7455161 1.61.89l8.1 1.86c.2488632.0600589.5039924.0902716.76.09.3249632-.0016667.6480952-.0487901.96-.14l2.82-.83 2.27-.67c.8575637-.2472185 1.5808237-.8267939 2.0089821-1.6098731.4281584-.7830791.5257284-1.7047585.2710179-2.5601269l-1.27-4.19h23.41c2.209139 0 4-1.790861 4-4v-32c0-2.209139-1.790861-4-4-4zm-34.65 6.19c.428075-.7762047.521937-1.6931642.26-2.54l-.5-1.65h34.89c.12 0 .23.02.34.03l-20.94 19.44c-.7671063.7114344-1.9528937.7114344-2.72 0l-14.41-13.33 1.07-.32c.8639816-.247008 1.589871-.8356646 2.01-1.63zm6.43 13.47-12.05 11.57c-2.0609812-2.5302834-3.5944568-5.4476273-4.51-8.58-1.291136-3.9453804-1.4676231-8.1706911-.51-12.21.0183778-.0548917.0637203-.0964558.12-.11l5.21-1.54zm4.06 26.12c-.1730416.3216648-.468785.5597022-.82.66l-1.33.39-2.43-8.05c-.1018207-.342975-.3788819-.6055762-.7268172-.6888844-.3479354-.0833082-.7138854.0253332-.96.285-.2461147.2596668-.3350035.6309094-.2331828.9738844l2.44 8.05-1.85.54c-.2337761.0716502-.4826069.0785621-.72.02l-8.09-1.86c-.2497898-.0604187-.4781297-.1884275-.66-.37-1.9-1.85-8.39-8.86-12.08-21.06s-2.14-21.57-1.59-24.15c.05728057-.2466956.17791827-.4741838.35-.66l5.74-5.94c.1652659-.17016648.3720809-.29425546.6-.36l1.86-.55 2.44 8.06c.1250398.4205514.5112543.7091959.95.71.0978295-.0027977.195066-.0162096.29-.04.2550492-.0762536.4691681-.2510531.5949275-.4856788.1257594-.2346258.1527786-.5097108.0750725-.7643212l-2.43-8.05 1.31-.38c.3487573-.108515.7263882-.07348803 1.0492369.09732144s.5642631.4633007.6707631.81267856l3.4 11.26c.1082424.3359592.0720215.7017897-.1 1.01-.170565.3237137-.4673127.5625594-.82.66l-1.33.4-.39-1.31c-.1846092-.4947957-.7221481-.7607423-1.2274761-.6072919s-.8042203.6733917-.6825239 1.1872919l.39 1.29-5.26 1.55c-.726752.2078014-1.29190668.780542-1.49 1.51-1.05387559 4.4006749-.87045097 9.0070556.53 13.31 1.2220767 4.3711616 3.6229889 8.3219422 6.94 11.42.5645787.5001941 1.3487142.6706583 2.07.45l5.27-1.55.39 1.3c.1280866.4227046.5183173.7113127.96.71.0981365.001461.1959234-.0120269.29-.04.2550492-.0762536.4691681-.2510531.5949275-.4856788.1257594-.2346258.1527786-.5097108.0750725-.7643212l-.39-1.29 1.31-.38c.7259707-.2206924 1.4940182.1856584 1.72.91l3.4 11.26c.1082424.3359592.0720215.7017897-.1 1.01zm24.16-7.78h-24.01l-1.53-5.07c-.548836-1.7776289-2.427096-2.7814495-4.21-2.25l-8.5 2.5c-.0579061.0216554-.1230038.0101675-.17-.03-.14-.12-.31-.27-.49-.45l12.17-11.68 2.06 1.91c1.5326829 1.4267625 3.9073171 1.4267625 5.44 0l2.02-1.87 17.61 16.9c-.1280534.0281366-.2589012.0415569-.39.04zm2-2c-.0008069.2147068-.0380003.4277237-.11.63l-17.64-16.94 17.63-16.36c.0753889.2155272.1158983.4417049.12.67z"/><path id="Shape" d="m27 17h16c.5522847 0 1-.4477153 1-1s-.4477153-1-1-1h-16c-.5522847 0-1 .4477153-1 1s.4477153 1 1 1z"/><path id="Shape" d="m56 23c-.5522847 0-1 .4477153-1 1v14c0 .5522847.4477153 1 1 1s1-.4477153 1-1v-14c0-.5522847-.4477153-1-1-1z"/></g></g></g></svg>