<?xml version="1.0" encoding="iso-8859-1"?>
<!-- Generator: Adobe Illustrator 19.0.0, SVG Export Plug-In . SVG Version: 6.00 Build 0)  -->
<svg version="1.1" id="Capa_1" xmlns="http://www.w3.org/2000/svg" xmlns:xlink="http://www.w3.org/1999/xlink" x="0px" y="0px"
	 viewBox="0 0 468.293 468.293" style="enable-background:new 0 0 468.293 468.293;" xml:space="preserve">
<path style="fill:#FCD462;" d="M468.293,108.174H0V45.735c0-6.897,5.591-12.488,12.488-12.488h443.317
	c6.897,0,12.488,5.591,12.488,12.488V108.174z"/>
<path style="fill:#E1E6E9;" d="M455.805,435.046H12.488C5.591,435.046,0,429.455,0,422.558V108.174h468.293v314.384
	C468.293,429.455,462.702,435.046,455.805,435.046z"/>
<circle style="fill:#44C4A1;" cx="56.626" cy="70.712" r="18.732"/>
<circle style="fill:#27A2DB;" cx="112.821" cy="70.712" r="18.732"/>
<circle style="fill:#E56353;" cx="169.016" cy="70.712" r="18.732"/>
<path style="fill:#F6C358;" d="M424.157,86.32H256.346c-3.448,0-6.244-2.795-6.244-6.244V61.344c0-3.448,2.796-6.244,6.244-6.244
	h167.811c3.448,0,6.244,2.795,6.244,6.244v18.732C430.401,83.525,427.605,86.32,424.157,86.32z"/>
<g>
	<rect x="37.894" y="143.803" style="fill:#44C4A1;" width="149.854" height="24.976"/>
	<rect x="37.894" y="201.459" style="fill:#44C4A1;" width="149.854" height="24.976"/>
	<rect x="37.894" y="259.122" style="fill:#44C4A1;" width="149.854" height="24.976"/>
	<rect x="37.894" y="316.753" style="fill:#44C4A1;" width="149.854" height="24.976"/>
	<rect x="37.894" y="374.447" style="fill:#44C4A1;" width="149.854" height="24.976"/>
</g>
<rect x="250.1" y="237.268" style="fill:#E56353;" width="180.299" height="68.683"/>
<rect x="250.1" y="143.803" style="fill:#27A2DB;" width="180.299" height="68.683"/>
<rect x="250.1" y="330.74" style="fill:#1C75A1;" width="180.299" height="68.683"/>
<g>
</g>
<g>
</g>
<g>
</g>
<g>
</g>
<g>
</g>
<g>
</g>
<g>
</g>
<g>
</g>
<g>
</g>
<g>
</g>
<g>
</g>
<g>
</g>
<g>
</g>
<g>
</g>
<g>
</g>
</svg>
